<svg width="10" height="13" viewBox="0 0 10 13" fill="none" xmlns="http://www.w3.org/2000/svg">
<path d="M8.72722 1.98259C7.94501 1.23169 6.86252 0.818115 5.67916 0.818115C3.87153 0.818115 2.75976 1.55909 2.14541 2.18066C1.38827 2.94667 0.954102 3.96377 0.954102 4.97124C0.954102 6.23618 1.4832 7.20706 2.36924 7.56826C2.42872 7.59263 2.48857 7.60491 2.54725 7.60491C2.73417 7.60491 2.88228 7.48261 2.93359 7.28641C2.9635 7.17386 3.03281 6.89619 3.06293 6.77564C3.12744 6.53759 3.07532 6.4231 2.93465 6.25732C2.67839 5.95411 2.55905 5.59555 2.55905 5.12891C2.55905 3.74284 3.59115 2.26972 5.50404 2.26972C7.02184 2.26972 7.96469 3.13238 7.96469 4.52101C7.96469 5.3973 7.77594 6.20883 7.4331 6.80621C7.19487 7.22128 6.77595 7.71607 6.13283 7.71607C5.85472 7.71607 5.60491 7.60183 5.44727 7.40267C5.29836 7.21439 5.24928 6.97118 5.30917 6.7177C5.37683 6.43131 5.46908 6.13256 5.55836 5.84375C5.7212 5.31627 5.87514 4.81807 5.87514 4.42059C5.87514 3.74071 5.45717 3.28389 4.83516 3.28389C4.04467 3.28389 3.42538 4.08677 3.42538 5.11172C3.42538 5.61439 3.55897 5.99036 3.61944 6.13473C3.51986 6.55665 2.92802 9.06509 2.81576 9.53811C2.75085 9.81424 2.35982 11.9952 3.00704 12.1691C3.73423 12.3645 4.38424 10.2404 4.4504 10.0004C4.50402 9.80515 4.69164 9.06703 4.80661 8.61329C5.15765 8.95144 5.72289 9.18003 6.27287 9.18003C7.3097 9.18003 8.24214 8.71346 8.89845 7.86634C9.53497 7.0447 9.88554 5.8995 9.88554 4.64185C9.88554 3.65865 9.46332 2.68937 8.72722 1.98259Z" fill="black"/>
</svg>
