<svg width="13" height="11" viewBox="0 0 13 11" fill="none" xmlns="http://www.w3.org/2000/svg">
<path d="M12.3099 1.97967C11.8728 2.1703 11.4104 2.29698 10.9372 2.35581C11.436 2.06009 11.809 1.59168 11.9855 1.03933C11.5184 1.31632 11.0075 1.51137 10.4747 1.61604C10.148 1.26733 9.72401 1.0249 9.25778 0.920259C8.79156 0.815616 8.30463 0.853587 7.86026 1.02924C7.41589 1.20489 7.03461 1.51011 6.76593 1.90525C6.49726 2.30039 6.35362 2.76719 6.35366 3.24502C6.35232 3.42763 6.37138 3.60982 6.41048 3.7882C5.46276 3.74167 4.53553 3.49564 3.6894 3.06622C2.84327 2.63679 2.0973 2.03362 1.50025 1.29615C1.19429 1.82002 1.09965 2.44085 1.23564 3.03208C1.37162 3.62331 1.72798 4.14042 2.23207 4.47797C1.85504 4.46791 1.48596 4.36736 1.15593 4.18479V4.21433C1.15655 4.76444 1.34666 5.29753 1.69427 5.72389C2.04187 6.15025 2.52575 6.44384 3.06445 6.55524C2.86052 6.60898 2.65034 6.63535 2.43945 6.63365C2.28804 6.63627 2.13679 6.62256 1.98832 6.59274C2.14283 7.06447 2.43951 7.47684 2.83767 7.77327C3.23583 8.0697 3.71596 8.23568 4.21218 8.24843C3.36904 8.90899 2.32872 9.2677 1.25763 9.26717C1.06773 9.26829 0.877953 9.25729 0.689453 9.23422C1.77869 9.93637 3.04807 10.3078 4.344 10.3035C5.23606 10.3098 6.12047 10.1388 6.94586 9.80032C7.77125 9.46189 8.52116 8.96282 9.15203 8.3321C9.78291 7.70139 10.2822 6.9516 10.6208 6.12629C10.9595 5.30099 11.1307 4.41662 11.1247 3.52456C11.1247 3.41945 11.1213 3.31774 11.1162 3.21661C11.586 2.88029 11.9905 2.46112 12.3099 1.97967Z" fill="black"/>
</svg>
