<svg width="1216" height="143" viewBox="0 0 1216 143" fill="none" xmlns="http://www.w3.org/2000/svg"><path d="M85.088 2.427Q86.838-.004 90.076 0q2.694 0 4.582 1.887 1.89 1.888 1.889 4.581 0 2.565-1.35 3.909l-.133.138-32.632 43.939a17.2 17.2 0 0 1-6.066 5.053 17.36 17.36 0 0 1-8.092 1.954 17.65 17.65 0 0 1-7.687-1.75 15.74 15.74 0 0 1-5.932-4.852L1.889 11.055a57 57 0 0 1-1.282-2.16A4.76 4.76 0 0 1 0 6.47q0-2.693 1.888-4.58Q3.78 0 6.472 0q3.376 0 5.126 2.56l31.416 41.917q.945 1.083 2.36 2.36 1.417 1.287 2.9 1.282 1.483 0 2.9-1.282 1.415-1.282 2.226-2.36zm103.827 43.4q4.582 0 7.549-1.682 2.965-1.687 4.654-4.114a14.3 14.3 0 0 0 2.289-5.324q.61-2.894.61-5.325 0-2.421-.605-5.324a14.3 14.3 0 0 0-2.294-5.32 13.8 13.8 0 0 0-4.654-4.113q-2.961-1.683-7.549-1.683h-54.477q-4.72 0-7.62 1.683a14.1 14.1 0 0 0-4.583 4.113 14.3 14.3 0 0 0-2.289 5.32 26.2 26.2 0 0 0-.61 5.324q0 2.431.606 5.325a14.3 14.3 0 0 0 2.293 5.324q1.689 2.43 4.583 4.114 2.9 1.682 7.62 1.682zm27.644-16.445q0 5.125-1.688 10.315a31.5 31.5 0 0 1-4.922 9.434 26.8 26.8 0 0 1-7.82 6.94q-4.588 2.698-10.381 2.698h-61.487q-5.532 0-9.847-2.698a25.7 25.7 0 0 1-7.344-6.94 32.9 32.9 0 0 1-4.654-9.505 34.8 34.8 0 0 1-1.622-10.244q0-4.98 1.689-10.243 1.683-5.258 4.921-9.5a26.8 26.8 0 0 1 7.82-6.94Q125.807 0 131.606 0h61.491q5.388 0 9.776 2.698a25.3 25.3 0 0 1 7.415 6.94q3.033 4.242 4.649 9.5c1.081 3.505 1.622 6.916 1.622 10.243m31.954 29.392a18.7 18.7 0 0 1-13.013-5.258 18.6 18.6 0 0 1-3.977-5.663 16.7 16.7 0 0 1-1.479-7.007V6.48q0-2.7 1.884-4.586 1.888-1.887 4.583-1.888 2.565 0 4.52 1.888 1.956 1.887 1.955 4.58v34.368q0 2.031 1.55 3.509t3.577 1.482h80.899q2.7 0 4.588 1.888t1.888 4.58-1.888 4.586a6.2 6.2 0 0 1-4.588 1.888zm113.403-29.387q0 2.43.606 5.325a14.35 14.35 0 0 0 2.289 5.324q1.692 2.43 4.587 4.114 2.904 1.682 7.62 1.682h53.666q4.589 0 7.554-1.682 2.966-1.688 4.649-4.114a14.3 14.3 0 0 0 2.289-5.324q.61-2.894.611-5.325V6.607q0-2.697 1.888-4.585t4.583-1.888 4.587 1.888q1.894 1.888 1.888 4.585v22.775q0 5.125-1.688 10.315a31.4 31.4 0 0 1-4.921 9.434 26.7 26.7 0 0 1-7.82 6.94q-4.584 2.698-10.382 2.698h-61.491q-5.532 0-9.847-2.698a25.7 25.7 0 0 1-7.344-6.94 32.9 32.9 0 0 1-4.654-9.505 34.8 34.8 0 0 1-1.622-10.244V6.607q0-2.697 1.889-4.585Q352.741.134 355.44.134q2.7 0 4.583 1.888t1.888 4.585zM586.022 52.3q0 2.697-1.888 4.585a6.2 6.2 0 0 1-4.583 1.888 6.2 6.2 0 0 1-4.587-1.888 6.2 6.2 0 0 1-1.888-4.586V22.915q0-5.53-.673-5.53-.538 0-3.777 3.642l-29.665 33.7a11 11 0 0 1-4.311 3.032 14.8 14.8 0 0 1-5.532 1.01q-2.965 0-5.526-1.01a11 11 0 0 1-4.316-3.036L489.61 21.026q-3.1-3.636-3.776-3.637-.673 0-.673 5.525v29.382q0 2.697-1.888 4.585a6.2 6.2 0 0 1-4.583 1.888 6.2 6.2 0 0 1-4.587-1.888 6.2 6.2 0 0 1-1.889-4.585V12.942q0-5.391 3.1-9.166Q478.418 0 483.812 0q3.242 0 5.798 1.62a24.3 24.3 0 0 1 4.721 3.909l31.011 35.311q.677.672 1.688 1.416a3.48 3.48 0 0 0 2.088.739 3.48 3.48 0 0 0 2.089-.739 14 14 0 0 0 1.688-1.416l30.877-35.316h.138a13.8 13.8 0 0 1 4.583-4.042A12.1 12.1 0 0 1 574.425 0q5.393 0 8.498 3.775 3.099 3.775 3.099 9.166zm13.486-45.827q0-2.694 1.884-4.581a6.2 6.2 0 0 1 4.587-1.888h95.601q2.7 0 4.588 1.888 1.884 1.887 1.884 4.58 0 2.7-1.884 4.586a6.2 6.2 0 0 1-4.588 1.888h-95.601a6.2 6.2 0 0 1-4.587-1.888 6.2 6.2 0 0 1-1.884-4.585m16.447 52.3q-2.96 0-5.932-1.283a16.7 16.7 0 0 1-5.26-3.575 19.1 19.1 0 0 1-3.772-5.524 17.2 17.2 0 0 1-1.483-7.279v-12.13q0-3.647 2.089-4.852 2.088-1.215 6.538-1.216h90.479q2.7 0 4.583 1.888 1.888 1.887 1.888 4.58 0 2.698-1.888 4.586a6.2 6.2 0 0 1-4.583 1.887H612.45v6.602q0 1.355 1.149 2.36 1.144 1.01 3.033 1.01h84.948q2.7 0 4.588 1.888 1.884 1.887 1.884 4.58 0 2.7-1.884 4.586a6.2 6.2 0 0 1-4.588 1.888zm197.412-52.3q0-2.694 1.883-4.581a6.2 6.2 0 0 1 4.588-1.888q2.694 0 4.582 1.888 1.889 1.887 1.889 4.58V45.7q0 5.662-3.639 9.366-3.644 3.71-9.303 3.709-1.893 0-3.71-.539a13 13 0 0 1-3.305-1.482L744.594 19.01a114 114 0 0 0-4.245-2.36q-1.688-.87-2.765-.876-2.022 0-2.561 2.564-.539 2.56-.539 7.412V52.3q0 2.7-1.888 4.586a6.2 6.2 0 0 1-4.588 1.888q-2.694 0-4.582-1.888a6.2 6.2 0 0 1-1.889-4.586V13.077q0-5.664 3.643-9.367 3.639-3.708 9.304-3.708 1.889 0 3.705.538 1.822.544 3.305 1.483l61.758 37.742a115 115 0 0 0 4.249 2.355q1.683.877 2.761.877 2.022 0 2.561-2.56.543-2.565.544-7.412zm32.898 6.473q-2.694 0-4.582-1.888a6.2 6.2 0 0 1-1.889-4.585q0-2.694 1.889-4.581 1.888-1.887 4.582-1.888h89.131q5.393 0 9.17 3.776 3.777 3.774 3.777 9.166 0 4.576-2.699 8.017-2.7 3.437-6.877 4.515L863.123 43.4q-3.244.81-3.238 1.483 0 .943 5.798.943h76.184q2.698 0 4.587 1.888t1.889 4.58-1.889 4.586a6.2 6.2 0 0 1-4.587 1.888h-89.131a12.5 12.5 0 0 1-9.165-3.775 12.48 12.48 0 0 1-3.777-9.167q0-4.175 2.294-7.683 2.29-3.499 6.199-4.448l76.861-18.06q2.155-.54 2.155-1.35 0-1.344-4.849-1.344zm115.559-6.473q0-2.694 1.888-4.581a6.2 6.2 0 0 1 4.587-1.888h95.601c1.8 0 3.32.63 4.58 1.888q1.89 1.887 1.89 4.58t-1.89 4.586a6.1 6.1 0 0 1-2.09 1.422c-.79.325-1.64.483-2.49.466h-95.601a6.2 6.2 0 0 1-4.587-1.888 6.2 6.2 0 0 1-1.888-4.585m16.451 52.3q-2.965 0-5.932-1.283a16.7 16.7 0 0 1-5.26-3.575 19 19 0 0 1-3.776-5.524 17.1 17.1 0 0 1-1.483-7.279v-12.13q0-3.647 2.093-4.852 2.089-1.215 6.538-1.216h90.475q2.7 0 4.59 1.888t1.89 4.58-1.89 4.586a6.3 6.3 0 0 1-2.1 1.421 6.2 6.2 0 0 1-2.49.466h-86.16v6.602q0 1.355 1.145 2.36t3.033 1.01h84.952c1.8 0 3.32.63 4.58 1.888q1.89 1.887 1.89 4.58t-1.89 4.586a6.1 6.1 0 0 1-2.09 1.422c-.79.325-1.64.483-2.49.466zM1096.8 52.3q0 2.7-1.89 4.586a6.1 6.1 0 0 1-2.09 1.422c-.79.324-1.64.483-2.49.466-1.8 0-3.33-.63-4.58-1.888a6.2 6.2 0 0 1-1.43-2.096 6.2 6.2 0 0 1-.46-2.49V6.47q0-2.693 1.89-4.58C1087 .628 1088.53 0 1090.33 0c1.79 0 3.32.629 4.58 1.887q1.89 1.888 1.89 4.581zM1209.53 0c1.8 0 3.32.63 4.58 1.888Q1216 3.776 1216 6.47t-1.89 4.586a6.1 6.1 0 0 1-2.09 1.421c-.79.325-1.64.483-2.49.466h-39.91v39.354q0 2.697-1.89 4.585a6.2 6.2 0 0 1-2.1 1.422c-.78.325-1.63.483-2.48.466q-2.7 0-4.59-1.888a6 6 0 0 1-1.42-2.096 6.1 6.1 0 0 1-.47-2.49V12.943h-40.45a6.67 6.67 0 0 1-4.18-2.092 6.1 6.1 0 0 1-1.32-2.014 6 6 0 0 1-.43-2.367c0-1.795.62-3.322 1.88-4.58q1.89-1.89 4.59-1.89zM235.996 122.877a1.86 1.86 0 0 1 1.635-.83 2.17 2.17 0 0 1 2.122 2.207q0 .873-.443 1.335l-.048.048-10.696 14.977a5.7 5.7 0 0 1-1.988 1.72 5.5 5.5 0 0 1-2.657.668 5.6 5.6 0 0 1-2.517-.596 5.25 5.25 0 0 1-1.946-1.654l-10.744-14.934-.419-.739a1.7 1.7 0 0 1-.201-.825 2.17 2.17 0 0 1 2.122-2.207q1.107 0 1.679.873l10.3 14.295q.315.362.778.801c.25.261.591.418.953.438q.482 0 .949-.438.468-.43.73-.806zm34.043 14.795q1.501 0 2.475-.572a4.61 4.61 0 0 0 2.274-3.217q.201-.996.201-1.816 0-.83-.196-1.816a4.61 4.61 0 0 0-2.274-3.218 4.8 4.8 0 0 0-2.48-.572h-17.863q-1.545 0-2.499.572a4.7 4.7 0 0 0-1.483 1.36 4.7 4.7 0 0 0-.773 1.858 9.5 9.5 0 0 0-.195 1.811q0 .83.195 1.821.196.987.754 1.811a4.8 4.8 0 0 0 1.502 1.402q.954.572 2.499.572zm9.06-5.605a11.7 11.7 0 0 1-2.165 6.73 9 9 0 0 1-2.565 2.369 6.4 6.4 0 0 1-3.405.916h-20.162q-1.812 0-3.223-.916a8.6 8.6 0 0 1-2.413-2.369 11.4 11.4 0 0 1-1.526-3.241 12.4 12.4 0 0 1-.525-3.489 11.9 11.9 0 0 1 2.16-6.735 9 9 0 0 1 2.566-2.365q1.502-.92 3.405-.92h20.161q1.774 0 3.205.92a8.4 8.4 0 0 1 2.432 2.365 11.3 11.3 0 0 1 1.526 3.241q.525 1.787.529 3.494m10.482 10.015a5.9 5.9 0 0 1-2.346-.477 6.1 6.1 0 0 1-3.224-3.241 5.7 5.7 0 0 1-.486-2.393v-11.717a2.17 2.17 0 0 1 2.122-2.207q.834 0 1.478.644.644.648.644 1.563v11.717q0 .691.505 1.191.505.51 1.173.51h26.528q.887 0 1.507.644.62.648.62 1.563a2.17 2.17 0 0 1-2.127 2.203zm37.181-10.015q0 .825.2 1.811.195.996.753 1.816a4.8 4.8 0 0 0 1.503 1.402q.953.572 2.498.572h17.597q1.502 0 2.479-.572a4.62 4.62 0 0 0 2.275-3.213q.2-.996.2-1.816v-7.77a2.17 2.17 0 0 1 2.122-2.202 2.17 2.17 0 0 1 2.122 2.207v7.765a11.7 11.7 0 0 1-.553 3.513 11 11 0 0 1-1.617 3.217 9 9 0 0 1-2.56 2.369 6.4 6.4 0 0 1-3.405.916h-20.162q-1.816 0-3.228-.916a8.6 8.6 0 0 1-2.408-2.369 11.4 11.4 0 0 1-1.526-3.241 12.4 12.4 0 0 1-.534-3.489v-7.77a2.167 2.167 0 0 1 2.126-2.202q.877 0 1.503.644.62.644.619 1.563zm73.484 7.812a2.175 2.175 0 0 1-2.122 2.203 2.176 2.176 0 0 1-2.122-2.207V129.86q0-1.883-.219-1.883-.177 0-1.24 1.239l-9.728 11.488a3.6 3.6 0 0 1-1.412 1.034 4.8 4.8 0 0 1-1.812.344 4.8 4.8 0 0 1-1.812-.344 3.6 3.6 0 0 1-1.416-1.034l-9.728-11.488q-1.015-1.239-1.24-1.239-.219 0-.219 1.883v10.019a2.17 2.17 0 0 1-2.122 2.203 2.17 2.17 0 0 1-2.122-2.207V126.46q0-1.845 1.015-3.127a3.35 3.35 0 0 1 2.785-1.287 3.35 3.35 0 0 1 1.903.553q.84.549 1.55 1.335l10.167 12.036q.223.228.553.481c.193.161.435.25.686.253q.358 0 .682-.253.296-.217.553-.476l10.129-12.046h.043a4.8 4.8 0 0 1 1.502-1.377 3.8 3.8 0 0 1 1.946-.506q1.764 0 2.785 1.287 1.02 1.287 1.015 3.127zm4.421-15.625a2.17 2.17 0 0 1 2.127-2.207h31.344q.886 0 1.507.644.62.648.62 1.563a2.17 2.17 0 0 1-2.127 2.207h-31.344a2.18 2.18 0 0 1-2.127-2.207m5.403 17.828a4.8 4.8 0 0 1-1.946-.434 5.7 5.7 0 0 1-1.726-1.22 6.7 6.7 0 0 1-1.24-1.883 6.2 6.2 0 0 1-.486-2.479v-4.137q0-1.245.686-1.654.687-.415 2.146-.415h29.666a2.17 2.17 0 0 1 2.122 2.207 2.17 2.17 0 0 1-2.122 2.207h-28.25v2.25q0 .457.372.805c.278.238.636.361 1.002.343h27.849q.887 0 1.506.644.62.648.62 1.563a2.17 2.17 0 0 1-2.126 2.203zm67.161-20.035q.878 0 1.502.644.62.648.62 1.563a2.2 2.2 0 0 1-.62 1.564 2 2 0 0 1-1.502.643h-13.09v13.418a2.175 2.175 0 0 1-2.122 2.203 2.17 2.17 0 0 1-2.122-2.207V126.46h-13.266a2.15 2.15 0 0 1-1.369-.715 2.14 2.14 0 0 1-.572-1.492 2.167 2.167 0 0 1 2.122-2.207zm34.973 12.227a69 69 0 0 1 2.432 1.673 53 53 0 0 1 2.518 1.954q.486.372.839.849.358.486.353 1.129a2.2 2.2 0 0 1-.615 1.564 2 2 0 0 1-1.507.639 1.9 1.9 0 0 1-.749-.181 5 5 0 0 1-.753-.458 90 90 0 0 0-3.715-2.688 28.6 28.6 0 0 0-3.953-2.303 24 24 0 0 0-4.268-1.582c-1.499-.4-3.045-.6-4.597-.596h-8.803a1.62 1.62 0 0 0-.973.548c-.267.322-.408.73-.395 1.149v3.908c.004.291-.05.579-.159.848-.11.268-.274.512-.48.716a2.06 2.06 0 0 1-1.493.644 2.05 2.05 0 0 1-1.493-.644 2.14 2.14 0 0 1-.619-1.564v-4.413q0-1.145.419-2.184a5.9 5.9 0 0 1 1.126-1.792 5.24 5.24 0 0 1 3.805-1.63h23.433c.439 0 .861-.173 1.173-.482a1.62 1.62 0 0 0 .505-1.22 1.6 1.6 0 0 0-.505-1.191 1.62 1.62 0 0 0-1.173-.506h-26.661a2 2 0 0 1-1.503-.643 2.15 2.15 0 0 1-.619-1.564q0-.92.619-1.563a2 2 0 0 1 1.503-.644h26.484q1.24 0 2.323.482a6.2 6.2 0 0 1 3.18 3.241q.463 1.101.463 2.388a6.11 6.11 0 0 1-3.643 5.63 5.7 5.7 0 0 1-2.323.486zm14.811 5.605a2.14 2.14 0 0 1-.619 1.564 2 2 0 0 1-1.503.639 2 2 0 0 1-1.507-.639 2.2 2.2 0 0 1-.615-1.564v-15.625q0-.92.615-1.563a2 2 0 0 1 1.507-.644q.878 0 1.503.644.62.648.619 1.563zm4.421-7.817a11.9 11.9 0 0 1 2.165-6.73 9 9 0 0 1 2.565-2.365 6.4 6.4 0 0 1 3.405-.92h25.779q.878 0 1.503.644.62.648.619 1.563a2.2 2.2 0 0 1-.619 1.564 2 2 0 0 1-1.503.643h-24.849q-1.55 0-2.499.572a4.8 4.8 0 0 0-1.502 1.402 4.9 4.9 0 0 0-.753 1.811 9.6 9.6 0 0 0-.201 1.821q0 .825.201 1.811.195.996.753 1.816a4.8 4.8 0 0 0 1.502 1.402q.95.572 2.499.572h24.849q.878 0 1.503.648.62.648.619 1.563a2.2 2.2 0 0 1-.619 1.564 2 2 0 0 1-1.503.639h-26.222q-1.812 0-3.229-.916a8.6 8.6 0 0 1-2.408-2.369 12.2 12.2 0 0 1-2.055-6.735m60.352-7.803q0-.92.62-1.563a2 2 0 0 1 1.502-.644 2 2 0 0 1 1.502.644q.62.648.62 1.563v7.813q0 .824.2 1.811.2.996.749 1.816a4.75 4.75 0 0 0 1.507 1.401q.953.572 2.494.572h10.262a11 11 0 0 1-1.064-2.731 12.4 12.4 0 0 1-.353-2.869v-7.818q0-.915.62-1.558a2 2 0 0 1 1.502-.644 2 2 0 0 1 1.503.644q.62.648.619 1.563v7.813q0 .82.201 1.792.2.968.705 1.811a4.2 4.2 0 0 0 1.417 1.43q.906.572 2.317.572h4.201q1.508 0 2.48-.572a4.75 4.75 0 0 0 1.521-1.406q.558-.825.754-1.811a9.5 9.5 0 0 0 .2-1.816v-7.818q0-.915.62-1.558a2 2 0 0 1 1.502-.644q.882 0 1.502.644.62.648.62 1.563v7.813a11.7 11.7 0 0 1-.553 3.513 10.9 10.9 0 0 1-1.612 3.217 9.1 9.1 0 0 1-2.565 2.369 6.4 6.4 0 0 1-3.405.915h-24.497q-1.812 0-3.228-.915a8.6 8.6 0 0 1-2.408-2.369 12.2 12.2 0 0 1-2.055-6.73zm73.174 10.02a67 67 0 0 1 2.432 1.673q1.24.9 2.518 1.954.486.372.839.849.358.486.358 1.129a2.2 2.2 0 0 1-.62 1.564 2 2 0 0 1-1.502.638 1.9 1.9 0 0 1-.754-.181 5 5 0 0 1-.753-.457 94 94 0 0 0-3.71-2.689 28.6 28.6 0 0 0-3.958-2.302 24 24 0 0 0-4.268-1.583 17.7 17.7 0 0 0-4.597-.595h-8.798c-.38.057-.726.252-.973.548a1.67 1.67 0 0 0-.4 1.149v3.908a2.14 2.14 0 0 1-.639 1.564 2.06 2.06 0 0 1-1.483.638 2 2 0 0 1-1.502-.638 2.13 2.13 0 0 1-.62-1.564v-4.414q0-1.143.419-2.183a5.7 5.7 0 0 1 1.13-1.792 5.14 5.14 0 0 1 3.801-1.63h23.433c.439 0 .861-.173 1.173-.482a1.62 1.62 0 0 0 .506-1.22 1.62 1.62 0 0 0-.506-1.192 1.63 1.63 0 0 0-1.173-.505h-26.661a2 2 0 0 1-1.502-.643 2.13 2.13 0 0 1-.62-1.564q0-.92.62-1.563a2 2 0 0 1 1.502-.644h26.485q1.239 0 2.322.482a6.2 6.2 0 0 1 3.181 3.241q.467 1.101.467 2.388a6.1 6.1 0 0 1-3.648 5.629 5.7 5.7 0 0 1-2.322.487zm14.812 5.605a2.14 2.14 0 0 1-.62 1.564 2 2 0 0 1-1.502.638 2 2 0 0 1-1.503-.638 2.15 2.15 0 0 1-.62-1.564v-15.625q0-.92.62-1.563a2 2 0 0 1 1.503-.644 2 2 0 0 1 1.502.644q.62.648.62 1.563zm10.3-5.605a5.45 5.45 0 0 1-2.299-.487 6.1 6.1 0 0 1-3.114-3.241 6.2 6.2 0 0 1-.467-2.383q0-1.287.467-2.393a6.1 6.1 0 0 1 3.114-3.241 5.55 5.55 0 0 1 2.299-.477h26.838q.886 0 1.507.639.615.648.615 1.563a2.2 2.2 0 0 1-.615 1.564 2 2 0 0 1-1.507.643h-26.924c-.439-.001-.86.17-1.173.477a1.62 1.62 0 0 0-.51 1.22q0 .692.51 1.196.51.506 1.173.506h24.449q1.239 0 2.322.481a5.92 5.92 0 0 1 3.138 3.265q.462 1.125.462 2.412a6.1 6.1 0 0 1-1.721 4.319 5.7 5.7 0 0 1-1.879 1.287 5.7 5.7 0 0 1-2.322.457h-26.8a2 2 0 0 1-1.502-.638 2.2 2.2 0 0 1-.62-1.564q0-.92.62-1.563a2 2 0 0 1 1.502-.644h26.971a1.58 1.58 0 0 0 1.15-.481 1.57 1.57 0 0 0 .486-1.173 1.7 1.7 0 0 0-.486-1.239 1.52 1.52 0 0 0-1.15-.505zm67.252-12.227a2 2 0 0 1 1.502.644q.62.648.62 1.563a2.2 2.2 0 0 1-.15.845 2.2 2.2 0 0 1-.47.719 2 2 0 0 1-1.502.643h-13.09v13.418a2.2 2.2 0 0 1-.615 1.564 2 2 0 0 1-1.507.638 2 2 0 0 1-1.502-.638 2.2 2.2 0 0 1-.62-1.564V126.46H726.73a2.2 2.2 0 0 1-1.373-.715 2.14 2.14 0 0 1-.572-1.492q0-.92.62-1.563a2 2 0 0 1 1.502-.644zm26.437 2.207q0-.92.62-1.563a2 2 0 0 1 1.507-.644q.882 0 1.502.644.615.648.615 1.563v7.813q0 .824.2 1.811.2.996.754 1.816a4.8 4.8 0 0 0 1.502 1.401q.954.572 2.499.572h10.257a11.9 11.9 0 0 1-1.416-5.605v-7.808q0-.92.62-1.563a2 2 0 0 1 1.502-.644q.886 0 1.507.644.615.648.615 1.563v7.813q0 .82.2 1.792c.132.64.372 1.252.711 1.811.35.582.834 1.072 1.411 1.43q.906.572 2.323.572h4.201q1.501 0 2.475-.572a4.8 4.8 0 0 0 1.526-1.406q.552-.825.753-1.811.19-.996.195-1.816v-7.818q0-.915.62-1.558a2 2 0 0 1 1.503-.644q.886 0 1.506.644.615.648.616 1.563v7.813a11.64 11.64 0 0 1-2.165 6.73 9.1 9.1 0 0 1-2.566 2.369 6.4 6.4 0 0 1-3.405.915H791.46q-1.812 0-3.229-.915a8.6 8.6 0 0 1-2.413-2.369 11.4 11.4 0 0 1-1.521-3.217 11.9 11.9 0 0 1-.534-3.513zm47.443 17.003a1.9 1.9 0 0 1-1.636.824 2 2 0 0 1-1.502-.638 2.15 2.15 0 0 1-.62-1.564q0-.876.444-1.334l10.744-15.025q.749-1.058 1.988-1.726a5.5 5.5 0 0 1 2.651-.667q1.33 0 2.523.601a5.2 5.2 0 0 1 1.946 1.654l10.743 14.934q.22.366.42.734.2.372.2.829a2.18 2.18 0 0 1-.62 1.564 2 2 0 0 1-1.506.638 1.9 1.9 0 0 1-1.679-.872l-10.3-14.29a10 10 0 0 0-.773-.806 1.43 1.43 0 0 0-.954-.434c-.359.02-.698.175-.948.434a5.7 5.7 0 0 0-.73.806zm59.379-19.21a2 2 0 0 1 1.502.644q.62.648.62 1.563a2.15 2.15 0 0 1-.62 1.564 2 2 0 0 1-1.502.643H877.5v13.418a2.16 2.16 0 0 1-.62 1.564 2 2 0 0 1-1.502.638 2 2 0 0 1-1.507-.638 2.2 2.2 0 0 1-.615-1.564V126.46H859.99a2.14 2.14 0 0 1-1.369-.715 2.1 2.1 0 0 1-.577-1.492q0-.92.62-1.563a2 2 0 0 1 1.502-.644zm5.484 10.02a11.9 11.9 0 0 1 2.165-6.736 9 9 0 0 1 2.565-2.364 6.4 6.4 0 0 1 3.405-.92h25.775q.886 0 1.507.644.615.648.615 1.563a2.2 2.2 0 0 1-.615 1.564 2 2 0 0 1-1.507.643h-24.845q-1.55 0-2.499.572a4.8 4.8 0 0 0-1.502 1.401 4.9 4.9 0 0 0-.753 1.812 9.5 9.5 0 0 0-.2 1.821q0 .824.2 1.811.195.996.753 1.816a4.8 4.8 0 0 0 1.502 1.401q.95.572 2.499.572h24.845a2 2 0 0 1 1.507.649q.615.648.615 1.563a2.2 2.2 0 0 1-.615 1.564 2 2 0 0 1-1.507.638h-26.218q-1.812 0-3.229-.915a8.6 8.6 0 0 1-2.408-2.369 12.2 12.2 0 0 1-2.055-6.73m75.072 7.812a2.2 2.2 0 0 1-.615 1.564 2 2 0 0 1-1.507.638 2 2 0 0 1-1.502-.638 2.2 2.2 0 0 1-.466-.72 2.2 2.2 0 0 1-.154-.844v-5.605H940.77v5.605a2.16 2.16 0 0 1-.62 1.564 2 2 0 0 1-1.502.638 2 2 0 0 1-1.507-.638 2.2 2.2 0 0 1-.615-1.564v-15.625q0-.92.615-1.563a2 2 0 0 1 1.507-.644q.878 0 1.502.644.62.648.62 1.563v5.606h26.127v-5.606q0-.92.62-1.563a2 2 0 0 1 1.502-.644q.888 0 1.507.644.615.648.615 1.563zm4.426-15.625q0-.92.615-1.563a2 2 0 0 1 1.507-.644h31.341c.59 0 1.1.215 1.51.644.41.432.62.953.62 1.563 0 .288-.05.575-.16.843-.1.268-.26.513-.46.721a2.1 2.1 0 0 1-.68.482c-.26.111-.54.166-.83.161h-31.341a2 2 0 0 1-1.507-.643 2.2 2.2 0 0 1-.615-1.564m5.393 17.827a4.8 4.8 0 0 1-1.946-.433 5.7 5.7 0 0 1-1.726-1.221 6.7 6.7 0 0 1-1.235-1.882 6.2 6.2 0 0 1-.486-2.479v-4.138q0-1.243.682-1.654.687-.414 2.146-.414h29.665c.59 0 1.09.214 1.51.643.41.429.61.95.61 1.564.01.288-.04.574-.15.843a2.3 2.3 0 0 1-.46.72 2 2 0 0 1-.69.483 2 2 0 0 1-.82.161h-28.249v2.249q0 .459.377.806c.275.236.629.359.991.343h27.851c.59 0 1.1.215 1.51.644.41.432.62.953.62 1.563 0 .288-.05.575-.16.843-.1.268-.26.513-.46.721-.19.206-.43.37-.69.48s-.53.164-.82.158zm40.5-7.817c-.83 0-1.6-.159-2.3-.477a6 6 0 0 1-3.12-3.241 6.1 6.1 0 0 1-.46-2.393c-.02-1.61.6-3.162 1.72-4.318a5.9 5.9 0 0 1 1.86-1.311c.7-.318 1.47-.478 2.3-.482h26.83c.28-.004.56.051.82.162s.49.275.69.482c.41.429.62.95.62 1.563 0 .289-.05.577-.16.845-.1.269-.26.513-.46.719s-.43.369-.69.479-.54.164-.82.16h-26.93c-.43.002-.85.177-1.16.486a1.6 1.6 0 0 0-.39.553c-.09.21-.13.435-.12.662q0 .691.51 1.192c.34.343.73.513 1.16.51h24.46c.82 0 1.6.16 2.32.481.72.324 1.35.761 1.87 1.311a6.1 6.1 0 0 1 1.27 1.955c.31.749.46 1.553.46 2.411a6.07 6.07 0 0 1-1.73 4.319 5.7 5.7 0 0 1-4.19 1.745h-26.8c-.28.004-.56-.051-.82-.162a2 2 0 0 1-.68-.482c-.2-.205-.36-.448-.47-.716-.1-.268-.16-.554-.15-.843 0-.613.21-1.134.62-1.563.19-.207.42-.371.68-.482s.54-.166.82-.162h26.97q.33.004.63-.122c.2-.082.38-.205.52-.359a1.55 1.55 0 0 0 .49-1.173c.01-.228-.03-.455-.12-.668a1.7 1.7 0 0 0-.37-.571 1.5 1.5 0 0 0-.52-.375q-.3-.131-.63-.135z" fill="#000"/></svg>